<svg xmlns="http://www.w3.org/2000/svg" xmlns:xlink="http://www.w3.org/1999/xlink" width="500" zoomAndPan="magnify" viewBox="0 0 375 374.999991" height="500" preserveAspectRatio="xMidYMid meet" version="1.0"><defs><g/><clipPath id="id1"><path d="M 46.351562 166.9375 L 162.601562 166.9375 L 162.601562 217.1875 L 46.351562 217.1875 Z M 46.351562 166.9375 " clip-rule="nonzero"/></clipPath></defs><rect x="-37.5" width="450" fill="#ffffff" y="-37.499999" height="449.999989" fill-opacity="1"/><rect x="-37.5" width="450" fill="#ffffff" y="-37.499999" height="449.999989" fill-opacity="1"/><rect x="-37.5" width="450" fill="#ffffff" y="-37.499999" height="449.999989" fill-opacity="1"/><rect x="-37.5" width="450" fill="#ffffff" y="-37.499999" height="449.999989" fill-opacity="1"/><path fill="#d1140e" d="M 76.816406 211.71875 C 75.890625 211.71875 75.136719 210.960938 75.136719 210.027344 C 75.136719 209.097656 75.890625 208.339844 76.816406 208.339844 C 77.742188 208.339844 78.496094 209.097656 78.496094 210.027344 C 78.496094 210.960938 77.742188 211.71875 76.816406 211.71875 Z M 76.816406 206.488281 C 74.875 206.488281 73.292969 208.074219 73.292969 210.027344 C 73.292969 211.980469 74.875 213.570312 76.816406 213.570312 C 78.757812 213.570312 80.339844 211.980469 80.339844 210.027344 C 80.339844 208.074219 78.757812 206.488281 76.816406 206.488281 " fill-opacity="1" fill-rule="nonzero"/><path fill="#d1140e" d="M 132.136719 211.71875 C 131.210938 211.71875 130.457031 210.960938 130.457031 210.027344 C 130.457031 209.097656 131.210938 208.339844 132.136719 208.339844 C 133.0625 208.339844 133.816406 209.097656 133.816406 210.027344 C 133.816406 210.960938 133.0625 211.71875 132.136719 211.71875 Z M 132.136719 206.488281 C 130.195312 206.488281 128.613281 208.074219 128.613281 210.027344 C 128.613281 211.980469 130.195312 213.570312 132.136719 213.570312 C 134.082031 213.570312 135.660156 211.980469 135.660156 210.027344 C 135.660156 208.074219 134.082031 206.488281 132.136719 206.488281 " fill-opacity="1" fill-rule="nonzero"/><g clip-path="url(#id1)"><path fill="#d1140e" d="M 160.710938 197.542969 L 160.710938 204.777344 L 159.15625 204.777344 C 158.246094 204.777344 157.503906 204.03125 157.503906 203.117188 L 157.503906 201.589844 C 157.503906 199.617188 158.875 197.964844 160.710938 197.542969 Z M 157.039062 211.574219 L 139.078125 211.574219 C 139.1875 211.078125 139.246094 210.558594 139.246094 210.027344 C 139.246094 206.089844 136.058594 202.882812 132.136719 202.882812 C 128.21875 202.882812 125.03125 206.089844 125.03125 210.027344 C 125.03125 210.558594 125.089844 211.078125 125.199219 211.574219 L 83.753906 211.574219 C 83.863281 211.078125 83.921875 210.558594 83.921875 210.027344 C 83.921875 206.089844 80.734375 202.882812 76.816406 202.882812 C 72.898438 202.882812 69.707031 206.089844 69.707031 210.027344 C 69.707031 210.558594 69.765625 211.078125 69.878906 211.574219 L 53.757812 211.574219 C 50.378906 211.574219 48.503906 209.550781 48.269531 207.417969 C 52.152344 207.117188 54.105469 205.636719 54.390625 202.804688 C 54.457031 202.132812 54.21875 201.480469 53.734375 201.011719 C 53.257812 200.546875 52.605469 200.332031 51.953125 200.417969 C 50.496094 200.617188 49.230469 200.90625 48.34375 201.136719 C 48.367188 200.828125 48.398438 200.488281 48.429688 200.132812 C 52.992188 199.234375 53.402344 195.679688 54.011719 190.433594 L 54.078125 189.851562 C 54.308594 187.839844 54.59375 185.9375 54.847656 184.261719 C 55.617188 179.097656 56.128906 175.683594 54.621094 173.925781 C 54.253906 173.496094 53.785156 173.195312 53.222656 173.023438 C 53.789062 171.644531 54.265625 170.980469 54.589844 170.664062 C 55.171875 170.097656 56.863281 168.78125 60.035156 168.78125 L 155.394531 168.78125 C 160.078125 168.78125 160.652344 172.410156 160.710938 172.960938 L 160.710938 195.65625 C 157.855469 196.101562 155.660156 198.59375 155.660156 201.589844 L 155.660156 203.117188 C 155.660156 205.054688 157.230469 206.628906 159.15625 206.628906 L 160.710938 206.628906 L 160.710938 207.882812 C 160.710938 208.992188 160.355469 211.574219 157.039062 211.574219 Z M 132.136719 215.320312 C 129.234375 215.320312 126.875 212.945312 126.875 210.027344 C 126.875 207.109375 129.234375 204.738281 132.136719 204.738281 C 135.042969 204.738281 137.402344 207.109375 137.402344 210.027344 C 137.402344 212.945312 135.042969 215.320312 132.136719 215.320312 Z M 76.816406 215.320312 C 73.914062 215.320312 71.550781 212.945312 71.550781 210.027344 C 71.550781 207.109375 73.914062 204.738281 76.816406 204.738281 C 79.71875 204.738281 82.082031 207.109375 82.082031 210.027344 C 82.082031 212.945312 79.71875 215.320312 76.816406 215.320312 Z M 52.59375 174.769531 C 52.9375 174.855469 53.117188 175.007812 53.222656 175.132812 C 54.179688 176.25 53.644531 179.835938 53.023438 183.984375 C 52.769531 185.675781 52.484375 187.59375 52.246094 189.636719 L 52.179688 190.21875 C 51.578125 195.402344 51.207031 197.46875 48.609375 198.191406 C 49.046875 193.71875 50.386719 181.621094 52.59375 174.769531 Z M 48.242188 203.085938 C 49.023438 202.863281 50.480469 202.488281 52.199219 202.253906 C 52.324219 202.238281 52.414062 202.300781 52.453125 202.34375 C 52.496094 202.386719 52.570312 202.476562 52.554688 202.617188 C 52.460938 203.546875 52.292969 205.21875 48.242188 205.5625 Z M 162.550781 172.839844 C 162.382812 170.796875 160.667969 166.929688 155.394531 166.929688 L 60.035156 166.929688 C 56.1875 166.929688 54.046875 168.609375 53.304688 169.335938 C 52.511719 170.113281 51.785156 171.464844 51.085938 173.460938 C 48.40625 181.117188 46.925781 196.285156 46.65625 199.25 C 46.535156 200.554688 46.445312 201.699219 46.414062 202.316406 C 46.414062 202.324219 46.414062 202.332031 46.414062 202.335938 C 46.414062 202.335938 46.414062 202.339844 46.414062 202.339844 C 46.402344 202.515625 46.398438 202.644531 46.398438 202.71875 L 46.398438 206.957031 C 46.398438 210.09375 48.976562 213.429688 53.757812 213.429688 L 70.566406 213.429688 C 71.769531 215.65625 74.121094 217.175781 76.816406 217.175781 C 79.511719 217.175781 81.863281 215.65625 83.066406 213.429688 L 125.886719 213.429688 C 127.09375 215.65625 129.441406 217.175781 132.136719 217.175781 C 134.835938 217.175781 137.183594 215.65625 138.390625 213.429688 L 157.039062 213.429688 C 161.109375 213.429688 162.554688 210.441406 162.554688 207.882812 L 162.554688 172.917969 C 162.554688 172.890625 162.554688 172.867188 162.550781 172.839844 " fill-opacity="1" fill-rule="nonzero"/></g><path fill="#d1140e" d="M 77.28125 185.117188 C 77.28125 196.121094 66.441406 199.269531 61.78125 200.113281 C 61.414062 200.179688 61.15625 200.019531 61.03125 199.914062 C 60.820312 199.738281 60.699219 199.476562 60.699219 199.199219 L 60.699219 175.308594 C 60.699219 174.796875 61.113281 174.382812 61.625 174.382812 L 76.359375 174.382812 C 76.867188 174.382812 77.28125 174.796875 77.28125 175.308594 Z M 76.359375 172.527344 L 61.625 172.527344 C 60.097656 172.527344 58.855469 173.777344 58.855469 175.308594 L 58.855469 199.199219 C 58.855469 200.027344 59.21875 200.804688 59.851562 201.335938 C 60.351562 201.757812 60.976562 201.984375 61.617188 201.984375 C 61.777344 201.984375 61.945312 201.96875 62.109375 201.9375 C 67.222656 201.011719 79.125 197.519531 79.125 185.117188 L 79.125 175.308594 C 79.125 173.777344 77.882812 172.527344 76.359375 172.527344 " fill-opacity="1" fill-rule="nonzero"/><path fill="#d1140e" d="M 155.382812 191.257812 C 155.382812 191.769531 154.96875 192.1875 154.460938 192.1875 L 139.085938 192.1875 L 139.085938 174.8125 L 154.460938 174.8125 C 154.96875 174.8125 155.382812 175.226562 155.382812 175.738281 Z M 84.667969 191.257812 L 84.667969 175.738281 C 84.667969 175.226562 85.082031 174.8125 85.589844 174.8125 L 100.964844 174.8125 L 100.964844 192.1875 L 85.589844 192.1875 C 85.082031 192.1875 84.667969 191.769531 84.667969 191.257812 Z M 119.105469 192.1875 L 102.808594 192.1875 L 102.808594 174.8125 L 119.105469 174.8125 Z M 120.949219 174.8125 L 137.242188 174.8125 L 137.242188 192.1875 L 120.949219 192.1875 Z M 157.226562 191.257812 L 157.226562 175.738281 C 157.226562 174.203125 155.988281 172.957031 154.460938 172.957031 L 85.589844 172.957031 C 84.066406 172.957031 82.824219 174.203125 82.824219 175.738281 L 82.824219 191.257812 C 82.824219 192.792969 84.066406 194.039062 85.589844 194.039062 L 154.460938 194.039062 C 155.988281 194.039062 157.226562 192.792969 157.226562 191.257812 " fill-opacity="1" fill-rule="nonzero"/><g fill="#1b7895" fill-opacity="1"><g transform="translate(181.988055, 189.310626)"><g><path d="M 25.613281 0 L 21.890625 -19.183594 L 16.871094 -19.183594 L 12.890625 -5.726562 L 8.886719 -19.183594 L 3.863281 -19.183594 L 0.140625 0 L 4.796875 0 L 7.050781 -13.230469 L 10.804688 0 L 14.953125 0 L 18.703125 -13.230469 L 20.960938 0 Z M 25.613281 0 "/></g></g></g><g fill="#1b7895" fill-opacity="1"><g transform="translate(213.386299, 189.310626)"><g><path d="M 7.304688 0 L 11.539062 0 L 11.539062 -9.167969 L 18.617188 -19.183594 L 13.570312 -19.183594 L 9.421875 -12.554688 L 5.273438 -19.183594 L 0.226562 -19.183594 L 7.304688 -9.167969 Z M 7.304688 0 "/></g></g></g><g fill="#1b7895" fill-opacity="1"><g transform="translate(237.87304, 189.310626)"><g/></g></g><g fill="#1b7895" fill-opacity="1"><g transform="translate(250.567913, 189.310626)"><g><path d="M 10.945312 -5.613281 C 10.945312 -4.34375 9.875 -3.300781 8.605469 -3.300781 L 5.925781 -3.300781 L 5.925781 -7.925781 L 8.605469 -7.925781 C 9.875 -7.925781 10.945312 -6.855469 10.945312 -5.613281 Z M 9.621094 -13.625 C 9.621094 -12.414062 8.605469 -11.398438 7.390625 -11.398438 L 5.925781 -11.398438 L 5.925781 -15.855469 L 7.390625 -15.855469 C 8.605469 -15.855469 9.621094 -14.867188 9.621094 -13.625 Z M 15.261719 -5.5 C 15.261719 -8.097656 13.511719 -9.816406 11.367188 -10.324219 C 12.808594 -10.972656 13.652344 -12.441406 13.652344 -14.386719 C 13.652344 -17.011719 11.566406 -19.183594 8.292969 -19.183594 L 1.691406 -19.183594 L 1.691406 0 L 9.449219 0 C 13.117188 0 15.261719 -2.199219 15.261719 -5.5 Z M 15.261719 -5.5 "/></g></g></g><g fill="#1b7895" fill-opacity="1"><g transform="translate(271.754064, 189.310626)"><g><path d="M 12.890625 -19.183594 L 12.890625 -8.097656 C 12.890625 -5.445312 12.101562 -3.949219 9.195312 -3.949219 C 6.320312 -3.949219 5.5 -5.445312 5.5 -8.097656 L 5.5 -19.183594 L 1.269531 -19.183594 L 1.269531 -7.476562 C 1.269531 -2.371094 4.203125 0.28125 9.195312 0.28125 C 14.191406 0.28125 17.125 -2.371094 17.125 -7.476562 L 17.125 -19.183594 Z M 12.890625 -19.183594 "/></g></g></g><g fill="#1b7895" fill-opacity="1"><g transform="translate(295.789434, 189.310626)"><g><path d="M 9.140625 -2.992188 C 7.050781 -2.992188 5.246094 -4.035156 5.132812 -6.320312 L 0.847656 -6.320312 C 0.875 -1.636719 4.738281 0.453125 8.972656 0.453125 C 12.890625 0.453125 16.925781 -1.214844 16.925781 -5.726562 C 16.925781 -13.03125 5.839844 -10.578125 5.839844 -13.992188 C 5.839844 -15.429688 7.503906 -15.996094 8.6875 -15.996094 C 10.804688 -15.996094 11.960938 -15.347656 12.1875 -13.34375 L 16.277344 -13.34375 C 16.136719 -17.714844 12.582031 -19.464844 8.632812 -19.464844 C 5.132812 -19.464844 1.46875 -17.601562 1.46875 -13.652344 C 1.46875 -6.574219 12.554688 -8.972656 12.554688 -5.246094 C 12.554688 -3.527344 10.464844 -2.992188 9.140625 -2.992188 Z M 9.140625 -2.992188 "/></g></g></g><g fill="#1b7895" fill-opacity="1"><g transform="translate(174.508301, 217.469469)"><g><path d="M 0.3125 -9.667969 L 2.898438 -9.667969 L 2.898438 -0.03125 L 3.996094 -0.03125 L 3.996094 -9.667969 L 6.582031 -9.667969 L 6.582031 -10.6875 L 0.3125 -10.6875 Z M 0.3125 -9.667969 "/></g></g></g><g fill="#1b7895" fill-opacity="1"><g transform="translate(184.538241, 217.469469)"><g><path d="M 4.71875 -5.46875 L 4.71875 -6.894531 C 4.496094 -6.988281 4.261719 -7.035156 4.027344 -7.035156 C 3.242188 -7.035156 2.679688 -6.597656 2.320312 -5.75 L 2.273438 -5.46875 L 2.273438 -6.894531 L 1.175781 -6.894531 L 1.175781 0 L 2.273438 0 L 2.273438 -3.449219 C 2.273438 -4.011719 2.398438 -4.511719 2.664062 -4.96875 C 2.789062 -5.203125 2.960938 -5.40625 3.164062 -5.5625 C 3.371094 -5.71875 3.621094 -5.8125 3.902344 -5.8125 C 4.183594 -5.8125 4.449219 -5.6875 4.71875 -5.46875 Z M 4.71875 -5.46875 "/></g></g></g><g fill="#1b7895" fill-opacity="1"><g transform="translate(192.546601, 217.469469)"><g><path d="M 6.660156 -3.449219 C 6.660156 -2.773438 6.425781 -2.179688 5.957031 -1.691406 C 5.484375 -1.191406 4.90625 -0.941406 4.230469 -0.941406 C 3.542969 -0.941406 2.960938 -1.191406 2.492188 -1.691406 C 2.023438 -2.179688 1.800781 -2.773438 1.800781 -3.449219 C 1.800781 -4.105469 2.023438 -4.703125 2.492188 -5.203125 C 2.960938 -5.703125 3.542969 -5.957031 4.230469 -5.957031 C 4.90625 -5.957031 5.484375 -5.703125 5.957031 -5.203125 C 6.425781 -4.703125 6.660156 -4.105469 6.660156 -3.449219 Z M 7.757812 0 L 7.757812 -6.894531 L 6.660156 -6.894531 L 6.660156 -5.703125 C 6.597656 -5.796875 6.519531 -5.875 6.457031 -5.957031 C 5.796875 -6.675781 5 -7.050781 4.058594 -7.050781 C 3.101562 -7.050781 2.304688 -6.675781 1.644531 -5.957031 C 1.019531 -5.234375 0.707031 -4.402344 0.707031 -3.449219 C 0.707031 -2.476562 1.019531 -1.644531 1.644531 -0.941406 C 2.304688 -0.203125 3.101562 0.15625 4.058594 0.15625 C 5 0.15625 5.796875 -0.203125 6.457031 -0.941406 C 6.519531 -1.003906 6.597656 -1.082031 6.660156 -1.175781 L 6.660156 0 Z M 7.757812 0 "/></g></g></g><g fill="#1b7895" fill-opacity="1"><g transform="translate(204.613794, 217.469469)"><g><path d="M 3.339844 0.660156 L 6.503906 -6.894531 L 5.3125 -6.894531 L 3.339844 -1.769531 L 1.347656 -6.894531 L 0.15625 -6.894531 Z M 3.339844 0.660156 "/></g></g></g><g fill="#1b7895" fill-opacity="1"><g transform="translate(214.408668, 217.469469)"><g><path d="M 7.914062 -3.605469 C 7.914062 -4.542969 7.539062 -5.359375 6.816406 -6.066406 C 6.113281 -6.738281 5.265625 -7.082031 4.308594 -7.082031 C 3.308594 -7.082031 2.460938 -6.722656 1.753906 -6.019531 C 1.050781 -5.3125 0.707031 -4.464844 0.707031 -3.480469 C 0.707031 -2.476562 1.050781 -1.628906 1.753906 -0.941406 C 2.085938 -0.609375 2.460938 -0.359375 2.898438 -0.171875 C 3.339844 0.015625 3.855469 0.109375 4.464844 0.109375 C 5.078125 0.109375 5.671875 -0.078125 6.269531 -0.453125 C 6.863281 -0.832031 7.304688 -1.363281 7.601562 -2.023438 L 6.347656 -2.023438 C 6.097656 -1.691406 5.796875 -1.441406 5.4375 -1.253906 C 5.078125 -1.066406 4.703125 -0.988281 4.308594 -0.988281 C 3.714844 -0.988281 3.179688 -1.175781 2.710938 -1.566406 C 2.242188 -1.941406 1.941406 -2.429688 1.847656 -3.023438 L 7.914062 -3.023438 Z M 6.753906 -3.964844 L 1.863281 -3.964844 C 1.925781 -4.246094 2.039062 -4.511719 2.195312 -4.765625 C 2.695312 -5.578125 3.402344 -5.988281 4.308594 -5.988281 C 4.890625 -5.988281 5.40625 -5.796875 5.859375 -5.421875 C 6.332031 -5.03125 6.613281 -4.542969 6.753906 -3.964844 Z M 6.753906 -3.964844 "/></g></g></g><g fill="#1b7895" fill-opacity="1"><g transform="translate(226.084081, 217.469469)"><g><path d="M 2.273438 0 L 2.273438 -11.753906 L 1.175781 -11.753906 L 1.175781 0 Z M 2.273438 0 "/></g></g></g><g fill="#1b7895" fill-opacity="1"><g transform="translate(232.666363, 217.469469)"><g/></g></g><g fill="#1b7895" fill-opacity="1"><g transform="translate(240.032207, 217.469469)"><g><path d="M 11 0 L 12.113281 0 L 9.636719 -11.363281 L 6.144531 -2.242188 L 2.648438 -11.363281 L 0.15625 0 L 1.285156 0 L 2.929688 -7.585938 L 6.144531 0.625 L 9.339844 -7.585938 Z M 11 0 "/></g></g></g><g fill="#1b7895" fill-opacity="1"><g transform="translate(255.437359, 217.469469)"><g><path d="M 6.660156 -3.449219 C 6.660156 -2.773438 6.425781 -2.179688 5.957031 -1.691406 C 5.484375 -1.191406 4.90625 -0.941406 4.230469 -0.941406 C 3.542969 -0.941406 2.960938 -1.191406 2.492188 -1.691406 C 2.023438 -2.179688 1.800781 -2.773438 1.800781 -3.449219 C 1.800781 -4.105469 2.023438 -4.703125 2.492188 -5.203125 C 2.960938 -5.703125 3.542969 -5.957031 4.230469 -5.957031 C 4.90625 -5.957031 5.484375 -5.703125 5.957031 -5.203125 C 6.425781 -4.703125 6.660156 -4.105469 6.660156 -3.449219 Z M 7.757812 0 L 7.757812 -6.894531 L 6.660156 -6.894531 L 6.660156 -5.703125 C 6.597656 -5.796875 6.519531 -5.875 6.457031 -5.957031 C 5.796875 -6.675781 5 -7.050781 4.058594 -7.050781 C 3.101562 -7.050781 2.304688 -6.675781 1.644531 -5.957031 C 1.019531 -5.234375 0.707031 -4.402344 0.707031 -3.449219 C 0.707031 -2.476562 1.019531 -1.644531 1.644531 -0.941406 C 2.304688 -0.203125 3.101562 0.15625 4.058594 0.15625 C 5 0.15625 5.796875 -0.203125 6.457031 -0.941406 C 6.519531 -1.003906 6.597656 -1.082031 6.660156 -1.175781 L 6.660156 0 Z M 7.757812 0 "/></g></g></g><g fill="#1b7895" fill-opacity="1"><g transform="translate(267.50455, 217.469469)"><g><path d="M 2.273438 0 L 2.273438 -11.753906 L 1.175781 -11.753906 L 1.175781 0 Z M 2.273438 0 "/></g></g></g><g fill="#1b7895" fill-opacity="1"><g transform="translate(274.086838, 217.469469)"><g><path d="M 6.660156 -3.449219 C 6.660156 -2.773438 6.425781 -2.179688 5.957031 -1.691406 C 5.484375 -1.191406 4.90625 -0.941406 4.230469 -0.941406 C 3.542969 -0.941406 2.960938 -1.191406 2.492188 -1.691406 C 2.023438 -2.179688 1.800781 -2.773438 1.800781 -3.449219 C 1.800781 -4.105469 2.023438 -4.703125 2.492188 -5.203125 C 2.960938 -5.703125 3.542969 -5.957031 4.230469 -5.957031 C 4.90625 -5.957031 5.484375 -5.703125 5.957031 -5.203125 C 6.425781 -4.703125 6.660156 -4.105469 6.660156 -3.449219 Z M 7.757812 0 L 7.757812 -6.894531 L 6.660156 -6.894531 L 6.660156 -5.703125 C 6.597656 -5.796875 6.519531 -5.875 6.457031 -5.957031 C 5.796875 -6.675781 5 -7.050781 4.058594 -7.050781 C 3.101562 -7.050781 2.304688 -6.675781 1.644531 -5.957031 C 1.019531 -5.234375 0.707031 -4.402344 0.707031 -3.449219 C 0.707031 -2.476562 1.019531 -1.644531 1.644531 -0.941406 C 2.304688 -0.203125 3.101562 0.15625 4.058594 0.15625 C 5 0.15625 5.796875 -0.203125 6.457031 -0.941406 C 6.519531 -1.003906 6.597656 -1.082031 6.660156 -1.175781 L 6.660156 0 Z M 7.757812 0 "/></g></g></g><g fill="#1b7895" fill-opacity="1"><g transform="translate(286.154029, 217.469469)"><g><path d="M 2.054688 3.917969 L 6.816406 -6.894531 L 5.59375 -6.894531 L 3.621094 -2.273438 L 1.410156 -6.894531 L 0.15625 -6.894531 L 3.039062 -1.128906 L 0.722656 3.917969 Z M 2.054688 3.917969 "/></g></g></g><g fill="#1b7895" fill-opacity="1"><g transform="translate(295.948903, 217.469469)"><g><path d="M 2.164062 -0.972656 C 1.894531 -1.160156 1.691406 -1.472656 1.582031 -1.925781 L 0.421875 -1.925781 C 0.660156 -0.5 1.566406 0.203125 3.164062 0.203125 C 3.542969 0.203125 3.886719 0.171875 4.214844 0.078125 C 4.542969 -0.015625 4.828125 -0.140625 5.09375 -0.3125 C 5.625 -0.675781 5.890625 -1.222656 5.890625 -1.957031 C 5.890625 -2.710938 5.546875 -3.242188 4.828125 -3.589844 C 4.527344 -3.730469 4.199219 -3.839844 3.839844 -3.917969 C 3.496094 -3.996094 3.164062 -4.089844 2.867188 -4.183594 C 2.554688 -4.277344 2.304688 -4.402344 2.101562 -4.542969 C 1.894531 -4.6875 1.785156 -4.90625 1.785156 -5.21875 C 1.785156 -5.53125 1.910156 -5.765625 2.164062 -5.90625 C 2.414062 -6.066406 2.710938 -6.144531 3.039062 -6.144531 C 3.386719 -6.144531 3.683594 -6.066406 3.917969 -5.941406 C 4.152344 -5.8125 4.339844 -5.5625 4.449219 -5.1875 L 5.625 -5.1875 C 5.484375 -5.875 5.1875 -6.363281 4.75 -6.628906 C 4.292969 -6.910156 3.746094 -7.050781 3.070312 -7.050781 C 2.414062 -7.050781 1.832031 -6.863281 1.347656 -6.519531 C 0.878906 -6.160156 0.625 -5.640625 0.625 -4.953125 C 0.625 -4.625 0.722656 -4.324219 0.894531 -4.074219 C 1.082031 -3.808594 1.347656 -3.605469 1.691406 -3.449219 C 2.007812 -3.308594 2.335938 -3.195312 2.679688 -3.101562 C 3.023438 -3.023438 3.355469 -2.929688 3.667969 -2.835938 C 4.371094 -2.601562 4.734375 -2.257812 4.734375 -1.816406 C 4.734375 -1.066406 4.230469 -0.707031 3.226562 -0.707031 C 2.804688 -0.707031 2.445312 -0.785156 2.164062 -0.972656 Z M 2.164062 -0.972656 "/></g></g></g><g fill="#1b7895" fill-opacity="1"><g transform="translate(305.383339, 217.469469)"><g><path d="M 2.289062 -9.277344 C 2.148438 -9.402344 1.976562 -9.480469 1.785156 -9.480469 C 1.597656 -9.480469 1.425781 -9.402344 1.300781 -9.277344 C 1.160156 -9.136719 1.097656 -8.964844 1.097656 -8.777344 C 1.097656 -8.589844 1.160156 -8.414062 1.300781 -8.289062 C 1.425781 -8.148438 1.597656 -8.085938 1.785156 -8.085938 C 1.976562 -8.085938 2.148438 -8.148438 2.289062 -8.289062 C 2.414062 -8.414062 2.492188 -8.589844 2.492188 -8.777344 C 2.492188 -8.964844 2.414062 -9.136719 2.289062 -9.277344 Z M 2.351562 0 L 2.351562 -6.894531 L 1.253906 -6.894531 L 1.253906 0 Z M 2.351562 0 "/></g></g></g><g fill="#1b7895" fill-opacity="1"><g transform="translate(312.106659, 217.469469)"><g><path d="M 6.660156 -3.449219 C 6.660156 -2.773438 6.425781 -2.179688 5.957031 -1.691406 C 5.484375 -1.191406 4.90625 -0.941406 4.230469 -0.941406 C 3.542969 -0.941406 2.960938 -1.191406 2.492188 -1.691406 C 2.023438 -2.179688 1.800781 -2.773438 1.800781 -3.449219 C 1.800781 -4.105469 2.023438 -4.703125 2.492188 -5.203125 C 2.960938 -5.703125 3.542969 -5.957031 4.230469 -5.957031 C 4.90625 -5.957031 5.484375 -5.703125 5.957031 -5.203125 C 6.425781 -4.703125 6.660156 -4.105469 6.660156 -3.449219 Z M 7.757812 0 L 7.757812 -6.894531 L 6.660156 -6.894531 L 6.660156 -5.703125 C 6.597656 -5.796875 6.519531 -5.875 6.457031 -5.957031 C 5.796875 -6.675781 5 -7.050781 4.058594 -7.050781 C 3.101562 -7.050781 2.304688 -6.675781 1.644531 -5.957031 C 1.019531 -5.234375 0.707031 -4.402344 0.707031 -3.449219 C 0.707031 -2.476562 1.019531 -1.644531 1.644531 -0.941406 C 2.304688 -0.203125 3.101562 0.15625 4.058594 0.15625 C 5 0.15625 5.796875 -0.203125 6.457031 -0.941406 C 6.519531 -1.003906 6.597656 -1.082031 6.660156 -1.175781 L 6.660156 0 Z M 7.757812 0 "/></g></g></g></svg>